<svg xmlns="http://www.w3.org/2000/svg" aria-hidden="true" style="position:absolute;width:0;height:0;overflow:hidden"><defs><symbol id="icon-clarity_close-line-2" viewBox="0 0 32 32">
<path d="M17.253 16l7.37-7.369c0.138-0.156 0.223-0.362 0.223-0.588 0-0.49-0.398-0.888-0.888-0.888-0.226 0-0.433 0.085-0.59 0.224l0.001-0.001-7.37 7.369-7.368-7.378c-0.164-0.18-0.399-0.292-0.661-0.292-0.493 0-0.893 0.4-0.893 0.893 0 0.261 0.112 0.496 0.291 0.66l0.001 0.001 7.378 7.37-7.378 7.369c-0.193 0.164-0.314 0.407-0.314 0.678 0 0.491 0.398 0.889 0.889 0.889 0.271 0 0.514-0.121 0.677-0.313l0.001-0.001 7.378-7.369 7.369 7.37c0.154 0.133 0.357 0.214 0.578 0.214 0.491 0 0.889-0.398 0.889-0.889 0-0.221-0.081-0.424-0.215-0.58l0.001 0.001-7.369-7.369z"></path>
</symbol><symbol id="disactive-heart" viewBox="0 0 36 32"><path fill="#fd5103" d="m17.882 32-2.593-2.302C6.08 21.554 0 16.183 0 9.591 0 4.22 4.328 0 9.835 0c3.112 0 6.098 1.413 8.047 3.645C19.831 1.413 22.818 0 25.929 0c5.508 0 9.835 4.22 9.835 9.591 0 6.592-6.08 11.963-15.289 20.124l-2.593 2.284z" style="fill:var(--color1, #fd5103)"/><path fill="#fcfcfc" d="m17.882 28.632-2.099-1.817C8.328 20.386 3.406 16.145 3.406 10.941c0-4.24 3.503-7.572 7.962-7.572 2.519 0 4.936 1.115 6.514 2.877 1.578-1.762 3.995-2.877 6.514-2.877 4.459 0 7.962 3.332 7.962 7.572 0 5.204-4.922 9.444-12.377 15.888l-2.099 1.803z" style="fill:var(--color2, #fcfcfc)"/></symbol><symbol id="active-heart" viewBox="0 0 36 32"><path fill="#fd5103" d="m17.882 32-2.593-2.302C6.08 21.554 0 16.183 0 9.591 0 4.22 4.328 0 9.835 0c3.112 0 6.098 1.413 8.047 3.645C19.831 1.413 22.818 0 25.929 0c5.508 0 9.835 4.22 9.835 9.591 0 6.592-6.08 11.963-15.289 20.124l-2.593 2.284z" style="fill:var(--color1, #fd5103)"/><path fill="#fd5103" d="m17.882 28.632-2.099-1.817C8.328 20.386 3.406 16.145 3.406 10.941c0-4.24 3.503-7.572 7.962-7.572 2.519 0 4.936 1.115 6.514 2.877 1.578-1.762 3.995-2.877 6.514-2.877 4.459 0 7.962 3.332 7.962 7.572 0 5.204-4.922 9.444-12.377 15.888l-2.099 1.803z" style="fill:var(--color1, #fd5103)"/></symbol></defs></svg>
