<svg aria-hidden="true" style="position: absolute; width: 0; height: 0; overflow: hidden;" version="1.1" xmlns="http://www.w3.org/2000/svg" xmlns:xlink="http://www.w3.org/1999/xlink">
<defs>
<symbol id="icon-close" viewBox="0 0 32 32">
<path d="M18.228 16l13.1-13.1c0.259-0.302 0.394-0.691 0.379-1.089s-0.18-0.775-0.462-1.056-0.659-0.446-1.056-0.462c-0.398-0.015-0.787 0.12-1.089 0.379l-13.1 13.1-13.1-13.116c-0.298-0.298-0.701-0.465-1.122-0.465s-0.824 0.167-1.122 0.465c-0.298 0.298-0.465 0.701-0.465 1.122s0.167 0.824 0.465 1.122l13.116 13.1-13.116 13.1c-0.165 0.142-0.3 0.316-0.395 0.512s-0.148 0.41-0.157 0.627 0.028 0.435 0.108 0.637c0.079 0.203 0.2 0.387 0.354 0.541s0.338 0.274 0.541 0.354 0.42 0.116 0.637 0.108c0.218-0.008 0.431-0.062 0.627-0.157s0.37-0.229 0.512-0.395l13.116-13.1 13.1 13.1c0.302 0.259 0.691 0.394 1.089 0.379s0.775-0.18 1.056-0.462 0.446-0.659 0.462-1.057c0.015-0.398-0.12-0.787-0.379-1.089l-13.1-13.1z"></path>
</symbol>
<symbol id="icon-Vector" viewBox="0 0 52 32">
<path d="M27.761 28.887l23.171-24.319c0.387-0.406 0.603-0.945 0.603-1.505s-0.216-1.1-0.603-1.505l-0.026-0.026c-0.187-0.197-0.413-0.355-0.663-0.462s-0.52-0.163-0.792-0.163c-0.272 0-0.542 0.055-0.792 0.163s-0.476 0.265-0.664 0.462l-21.818 22.9-21.809-22.9c-0.188-0.197-0.413-0.355-0.663-0.462s-0.52-0.163-0.792-0.163c-0.272 0-0.542 0.055-0.792 0.163s-0.476 0.265-0.663 0.462l-0.026 0.026c-0.387 0.406-0.603 0.945-0.603 1.505s0.216 1.1 0.603 1.505l23.171 24.319c0.204 0.214 0.449 0.384 0.72 0.5s0.564 0.176 0.859 0.176c0.295 0 0.588-0.060 0.859-0.176s0.517-0.287 0.72-0.5z"></path>
</symbol>
<symbol id="icon-Toggle" viewBox="0 0 61 32">
<path fill="#fff" style="fill: var(--color1, #fff)" d="M15.238 1.223h30.476c8.161 0 14.777 6.616 14.777 14.777s-6.616 14.777-14.777 14.777h-30.476c-8.161 0-14.777-6.616-14.777-14.777s6.616-14.777 14.777-14.777z"></path>
<path fill="#fd5103" style="fill: var(--color2, #fd5103)" d="M25.905 16c0 6.733-5.458 12.19-12.19 12.19s-12.19-5.458-12.19-12.19c0-6.733 5.458-12.19 12.19-12.19s12.19 5.458 12.19 12.19z"></path>
<path fill="none" stroke="#fd5103" style="stroke: var(--color2, #fd5103)" stroke-linejoin="miter" stroke-linecap="butt" stroke-miterlimit="4" stroke-width="0.9214" d="M15.238 1.223h30.476c8.161 0 14.777 6.616 14.777 14.777s-6.616 14.777-14.777 14.777h-30.476c-8.161 0-14.777-6.616-14.777-14.777s6.616-14.777 14.777-14.777z"></path>
</symbol>
</defs>
</svg>
